<?xml version="1.0" encoding="utf-8"?>
<!-- Generator: Adobe Illustrator 24.0.1, SVG Export Plug-In . SVG Version: 6.00 Build 0)  -->
<svg version="1.1" xmlns="http://www.w3.org/2000/svg" xmlns:xlink="http://www.w3.org/1999/xlink" x="0px" y="0px"
	 viewBox="0 0 500 500" style="enable-background:new 0 0 500 500;" xml:space="preserve">
<style type="text/css">
	.st0{fill:#FFFFFF;}
	.st1{fill:#D6953E;}
	.st2{fill:#B57B35;}
	.st3{fill:#285C77;}
	.st4{fill:#868689;}
	.st5{fill:#6D6D6D;}
	.st6{fill:#C5C4D7;}
	.st7{fill:#A5A5AD;}
	.st8{fill:#172F47;}
	.st9{fill:#202739;}
	.st10{fill:#A7A6BB;}
	.st11{fill:#FEFEFE;}
	.st12{fill:#FD7C3A;}
	.st13{fill:#004DB9;}
	.st14{fill:#D3D3D3;}
	.st15{fill:#ADADAD;}
	.st16{fill:#E4E4EF;}
	.st17{fill:#897762;}
	.st18{fill:#331D0B;}
	.st19{fill:#635140;}
	.st20{fill:#EDAC7C;}
	.st21{fill:#F7A588;}
	.st22{fill:#CF9166;}
	.st23{fill:#B57223;}
	.st24{fill:#39748E;}
	.st25{fill:#77BFD8;}
</style>
<g id="BACKGROUND">
	<rect id="XMLID_1_" class="st0" width="500" height="500"/>
</g>
<g id="OBJECTS">
	<g>
		<g>
			<polygon class="st1" points="115.11,274.51 150.61,190.94 150.61,174.44 108.1,274.51 			"/>
			<polygon class="st2" points="145.52,189.93 150.61,190.94 150.61,174.44 144.5,188.83 143.44,191.33 			"/>
		</g>
		<g>
			<path class="st3" d="M307.25,90.36l-14.1,13.09l4.86,7.41c0.99,1.51,1.09,3.42,0.33,5.06c-0.01,0.02-0.02,0.04-0.02,0.05
				c-0.75,1.65-2.26,2.82-4.05,3.06l-8.78,1.16l-0.71,19.23l8.67,1.8c1.77,0.37,3.19,1.65,3.82,3.35c0.01,0.02,0.01,0.04,0.02,0.05
				c0.63,1.7,0.39,3.59-0.71,5.03l-5.39,7.03l6.54,7.05l6.54,7.05l7.41-4.86c1.51-0.99,3.42-1.09,5.06-0.33
				c0.02,0.01,0.04,0.02,0.05,0.02c1.65,0.75,2.82,2.26,3.06,4.05l1.16,8.78l19.23,0.71l1.8-8.67c0.37-1.77,1.65-3.19,3.35-3.82
				c0.02-0.01,0.04-0.01,0.05-0.02c1.7-0.63,3.59-0.39,5.03,0.71l7.03,5.39l14.1-13.09l-4.86-7.41c-0.99-1.51-1.09-3.42-0.33-5.06
				c0.01-0.02,0.02-0.04,0.02-0.05c0.75-1.65,2.26-2.82,4.05-3.06l8.78-1.16l0.71-19.23l-8.67-1.8c-1.77-0.37-3.19-1.65-3.82-3.35
				c-0.01-0.02-0.01-0.04-0.02-0.05c-0.63-1.7-0.39-3.59,0.71-5.03l5.39-7.03l-6.54-7.05l-6.54-7.05l-7.41,4.86
				c-1.51,0.99-3.42,1.09-5.06,0.33c-0.02-0.01-0.04-0.02-0.05-0.02c-1.65-0.75-2.82-2.26-3.06-4.05l-1.16-8.78l-19.23-0.71
				l-1.8,8.67c-0.37,1.77-1.65,3.19-3.35,3.82c-0.02,0.01-0.04,0.01-0.05,0.02c-1.7,0.63-3.59,0.39-5.03-0.71L307.25,90.36z
				 M353.18,112.23c10.67,11.5,10,29.46-1.49,40.14c-11.5,10.67-29.46,10-40.14-1.49c-10.67-11.5-10-29.46,1.49-40.14
				C324.54,100.07,342.51,100.74,353.18,112.23z"/>
			<path class="st1" d="M394.95,112.71l-6.23,5.78l2.15,3.27c0.44,0.67,0.48,1.51,0.15,2.24c0,0.01-0.01,0.02-0.01,0.02
				c-0.33,0.73-1,1.25-1.79,1.35l-3.88,0.51l-0.32,8.49l3.83,0.8c0.78,0.16,1.41,0.73,1.69,1.48c0,0.01,0.01,0.02,0.01,0.02
				c0.28,0.75,0.17,1.59-0.31,2.22l-2.38,3.1l2.89,3.11l2.89,3.11l3.27-2.15c0.67-0.44,1.51-0.48,2.24-0.15
				c0.01,0,0.02,0.01,0.02,0.01c0.73,0.33,1.25,1,1.35,1.79l0.51,3.88l8.49,0.32l0.8-3.83c0.16-0.78,0.73-1.41,1.48-1.69
				c0.01,0,0.02-0.01,0.02-0.01c0.75-0.28,1.59-0.17,2.22,0.31l3.1,2.38l6.23-5.78l-2.15-3.27c-0.44-0.67-0.48-1.51-0.15-2.24
				c0-0.01,0.01-0.02,0.01-0.02c0.33-0.73,1-1.25,1.79-1.35l3.88-0.51l0.32-8.49l-3.83-0.8c-0.78-0.16-1.41-0.73-1.69-1.48
				c0-0.01-0.01-0.02-0.01-0.02c-0.28-0.75-0.17-1.59,0.31-2.22l2.38-3.1l-2.89-3.11l-2.89-3.11l-3.27,2.15
				c-0.67,0.44-1.51,0.48-2.24,0.15c-0.01,0-0.02-0.01-0.02-0.01c-0.73-0.33-1.25-1-1.35-1.79l-0.51-3.88l-8.49-0.32l-0.8,3.83
				c-0.16,0.78-0.73,1.41-1.48,1.69c-0.01,0-0.02,0.01-0.02,0.01c-0.75,0.28-1.59,0.17-2.22-0.31L394.95,112.71z M415.24,122.37
				c4.71,5.08,4.42,13.02-0.66,17.73c-5.08,4.71-13.02,4.42-17.73-0.66c-4.71-5.08-4.42-13.02,0.66-17.73
				C402.58,117,410.52,117.3,415.24,122.37z"/>
			<path class="st1" d="M246.47,62.45l-9.16,8.51l3.16,4.81c0.64,0.98,0.71,2.22,0.22,3.29c-0.01,0.01-0.01,0.02-0.02,0.03
				c-0.49,1.07-1.47,1.83-2.63,1.99l-5.71,0.75l-0.46,12.49l5.64,1.17c1.15,0.24,2.07,1.07,2.48,2.18c0,0.01,0.01,0.02,0.01,0.04
				c0.41,1.1,0.26,2.33-0.46,3.27l-3.5,4.57l4.25,4.58l4.25,4.58l4.81-3.16c0.98-0.64,2.22-0.71,3.29-0.22
				c0.01,0.01,0.02,0.01,0.03,0.02c1.07,0.49,1.83,1.47,1.99,2.63l0.75,5.71l12.49,0.46l1.17-5.64c0.24-1.15,1.07-2.07,2.18-2.48
				c0.01,0,0.02-0.01,0.04-0.01c1.1-0.41,2.33-0.26,3.27,0.46l4.57,3.5l9.16-8.51l-3.16-4.81c-0.64-0.98-0.71-2.22-0.22-3.29
				c0.01-0.01,0.01-0.02,0.02-0.03c0.49-1.07,1.47-1.83,2.63-1.99l5.71-0.75l0.46-12.49l-5.64-1.17c-1.15-0.24-2.07-1.07-2.48-2.18
				c0-0.01-0.01-0.02-0.01-0.04c-0.41-1.1-0.26-2.33,0.46-3.27l3.5-4.57l-4.25-4.58l-4.25-4.58l-4.81,3.16
				c-0.98,0.64-2.22,0.71-3.29,0.22c-0.01-0.01-0.02-0.01-0.03-0.02c-1.07-0.49-1.83-1.47-1.99-2.63l-0.75-5.71l-12.49-0.46
				l-1.17,5.64c-0.24,1.15-1.07,2.07-2.18,2.48c-0.01,0-0.02,0.01-0.04,0.01c-1.1,0.41-2.33,0.26-3.27-0.46L246.47,62.45z
				 M276.31,76.67c6.93,7.47,6.5,19.15-0.97,26.08c-7.47,6.93-19.15,6.5-26.08-0.97c-6.93-7.47-6.5-19.15,0.97-26.08
				C257.7,68.76,269.38,69.2,276.31,76.67z"/>
		</g>
		<g>
			<g>
				<path id="XMLID_206_" class="st4" d="M89.27,283.11h321.47c2.39,0,4.33-1.94,4.33-4.33l0,0c0-2.39-1.94-4.33-4.33-4.33H89.27
					c-2.39,0-4.33,1.94-4.33,4.33l0,0C84.94,281.17,86.87,283.11,89.27,283.11z"/>
				<path class="st5" d="M85.29,280.5c0.67,1.53,2.19,2.61,3.97,2.61h321.47c1.78,0,3.3-1.08,3.97-2.61H85.29z"/>
			</g>
			
				<rect id="XMLID_42_" x="184.02" y="269.9" transform="matrix(-1 -1.224647e-16 1.224647e-16 -1 487.3196 544.3535)" class="st6" width="119.29" height="4.54"/>
			
				<rect id="XMLID_270_" x="196.13" y="269.9" transform="matrix(-1 -1.224647e-16 1.224647e-16 -1 511.5421 544.3535)" class="st7" width="119.29" height="4.54"/>
		</g>
		<g>
			<path id="XMLID_520_" class="st8" d="M339.24,242.58h-177.6c-3.87,0-7-3.14-7-7V129.75c0-3.87,3.14-7,7-7h177.6
				c3.87,0,7,3.14,7,7v105.83C346.24,239.45,343.11,242.58,339.24,242.58z"/>
			<rect x="249.13" y="140.69" class="st9" width="2.58" height="83.79"/>
			<path class="st10" d="M346.24,135.31v-6.11c0-3.57-2.89-6.46-6.46-6.46H161.09c-3.57,0-6.46,2.89-6.46,6.46v6.11H346.24z"/>
			<g>
				<g>
					<rect x="265.62" y="184.15" class="st11" width="26.33" height="4.54"/>
					<rect x="265.62" y="192.95" class="st12" width="32.77" height="4.54"/>
					<rect x="301.74" y="192.95" class="st11" width="16.24" height="4.54"/>
					<rect x="265.62" y="201.74" class="st11" width="12.88" height="4.54"/>
					<rect x="282.98" y="201.74" class="st11" width="48.45" height="4.54"/>
					<rect x="298.1" y="184.15" class="st13" width="15.12" height="4.54"/>
				</g>
				<g>
					<rect x="265.62" y="142.98" class="st11" width="26.33" height="4.54"/>
					<rect x="265.62" y="151.77" class="st12" width="32.77" height="4.54"/>
					<rect x="301.74" y="151.77" class="st11" width="16.24" height="4.54"/>
					<rect x="265.62" y="160.56" class="st11" width="12.88" height="4.54"/>
					<rect x="282.98" y="160.56" class="st11" width="48.45" height="4.54"/>
					<rect x="298.1" y="142.98" class="st13" width="15.12" height="4.54"/>
				</g>
			</g>
			<g>
				<g>
					<rect x="176.05" y="184.15" class="st11" width="26.33" height="4.54"/>
					<rect x="176.05" y="192.95" class="st12" width="32.77" height="4.54"/>
					<rect x="212.18" y="192.95" class="st11" width="16.24" height="4.54"/>
					<rect x="176.05" y="201.74" class="st11" width="12.88" height="4.54"/>
					<rect x="193.41" y="201.74" class="st11" width="48.45" height="4.54"/>
					<rect x="208.54" y="184.15" class="st13" width="15.12" height="4.54"/>
				</g>
				<g>
					<rect x="176.05" y="142.98" class="st11" width="26.33" height="4.54"/>
					<rect x="176.05" y="151.77" class="st12" width="32.77" height="4.54"/>
					<rect x="212.18" y="151.77" class="st11" width="16.24" height="4.54"/>
					<rect x="176.05" y="160.56" class="st11" width="12.88" height="4.54"/>
					<rect x="193.41" y="160.56" class="st11" width="48.45" height="4.54"/>
					<rect x="208.54" y="142.98" class="st13" width="15.12" height="4.54"/>
				</g>
			</g>
			<g id="XMLID_327_">
				<path class="st4" d="M336.85,246.61H164.03c-7.4,0-13.42-6.02-13.42-13.42V132.14c0-7.4,6.02-13.42,13.42-13.42h172.82
					c7.4,0,13.42,6.02,13.42,13.42v101.05C350.27,240.59,344.25,246.61,336.85,246.61z M164.03,126.77c-2.96,0-5.37,2.41-5.37,5.37
					v83.13c0,2.96,2.41,5.37,5.37,5.37h172.82c2.96,0,5.37-2.41,5.37-5.37v-83.13c0-2.96-2.41-5.37-5.37-5.37H164.03z"/>
			</g>
			<path class="st14" d="M332.7,224.25l0.39-1.71c1.09-4.77-0.45-9.75-4.04-13.08v0c-3.58-3.33-8.67-4.49-13.34-3.04l-0.83,0.26
				l10.3,9.55l-1.56,6.85l-6.72,2.07l-10.3-9.55l-0.19,0.85c-1.09,4.77,0.45,9.75,4.04,13.08l0,0c3.58,3.33,8.67,4.49,13.34,3.04
				l1.68-0.52l15.11,14.02c3.61-1.04,6.59-3.56,8.25-6.86L332.7,224.25z"/>
			<g>
				<path class="st5" d="M336.85,124.8H164.03c-2.96,0-5.37,2.41-5.37,5.37v1.97c0-2.96,2.41-5.37,5.37-5.37h172.82
					c2.96,0,5.37,2.41,5.37,5.37v-1.97C342.22,127.21,339.81,124.8,336.85,124.8z"/>
				<path class="st5" d="M336.85,244.64H164.03c-7.4,0-13.42-6.02-13.42-13.42v1.97c0,7.4,6.02,13.42,13.42,13.42h172.82
					c7.4,0,13.42-6.02,13.42-13.42v-1.97C350.27,238.62,344.25,244.64,336.85,244.64z"/>
			</g>
			<path class="st11" d="M333.51,131.2c0,1.12-0.91,2.02-2.02,2.02c-1.12,0-2.02-0.9-2.02-2.02c0-1.12,0.9-2.02,2.02-2.02
				C332.6,129.18,333.51,130.08,333.51,131.2z"/>
			<path class="st9" d="M326.48,131.2c0,1.12-0.9,2.02-2.02,2.02s-2.02-0.9-2.02-2.02c0-1.12,0.91-2.02,2.02-2.02
				S326.48,130.08,326.48,131.2z"/>
			<path class="st12" d="M319.46,131.2c0,1.12-0.9,2.02-2.02,2.02s-2.02-0.9-2.02-2.02c0-1.12,0.9-2.02,2.02-2.02
				S319.46,130.08,319.46,131.2z"/>
		</g>
		<g>
			<polygon class="st1" points="144.81,274.51 188.11,172.56 182.17,170.03 137.79,274.51 			"/>
			<path class="st1" d="M145.1,191.52L145.1,191.52c0-1.78,1.44-3.23,3.23-3.23h27.66v6.45h-27.66
				C146.54,194.75,145.1,193.3,145.1,191.52z"/>
			
				<rect x="148.54" y="199.14" transform="matrix(-1.836970e-16 1 -1 -1.836970e-16 366.2913 62.7661)" class="st1" width="6.45" height="30.77"/>
			
				<rect x="138.97" y="221.81" transform="matrix(-1.836970e-16 1 -1 -1.836970e-16 379.7336 95.3373)" class="st1" width="6.45" height="31.46"/>
			
				<rect x="129.18" y="245.27" transform="matrix(-1.836970e-16 1 -1 -1.836970e-16 392.9455 128.139)" class="st1" width="6.45" height="30.54"/>
		</g>
		<g>
			<path class="st15" d="M370.58,266.2l-34.54-49.04l0.74-1.59c2.05-4.44,1.59-9.63-1.23-13.63c-2.82-4-7.55-6.19-12.42-5.75
				l-0.87,0.08l8.09,11.48l-2.95,6.38l-7,0.63l-8.09-11.48l-0.37,0.79c-2.05,4.44-1.59,9.63,1.23,13.63c2.82,4,7.55,6.19,12.42,5.75
				l1.75-0.16l34.54,49.04c1.69,2.4,5.01,2.98,7.42,1.29S372.28,268.6,370.58,266.2z"/>
			<path class="st4" d="M365.42,268.1L365.42,268.1c-1.18,0.83-2.82,0.55-3.65-0.63l-28.93-41.09c-0.83-1.18-0.55-2.82,0.63-3.65
				l0,0c1.18-0.83,2.82-0.55,3.65,0.63l28.93,41.09C366.88,265.63,366.6,267.27,365.42,268.1z"/>
		</g>
	</g>
	<g>
		<path class="st16" d="M422,391.68H78c-3.1,0-5.62-2.52-5.62-5.62l0,0c0-3.1,2.52-5.62,5.62-5.62H422c3.1,0,5.62,2.52,5.62,5.62
			l0,0C427.61,389.16,425.1,391.68,422,391.68z"/>
		<path class="st6" d="M316.23,391.68H183.77c-3.1,0-5.62-2.52-5.62-5.62l0,0c0-3.1,2.52-5.62,5.62-5.62h132.47
			c3.1,0,5.62,2.52,5.62,5.62l0,0C321.85,389.16,319.34,391.68,316.23,391.68z"/>
	</g>
	<g>
		<path class="st17" d="M249.13,289.57h31.72c0.51,0,1.05,0.03,1.61,0.09c10.79,1.12,17.96,11.77,15.44,22.32l-12.98,60.42h-18.65
			l8.95-57.31h-26.09V289.57z"/>
		<path class="st18" d="M266.26,372.4h15.57c0,0,16.57,1.57,16.57,12.54h-32.14V372.4z"/>
		<path class="st17" d="M250.93,289.57h-31.72c-0.51,0-1.05,0.03-1.61,0.09c-10.79,1.12-17.96,11.77-15.44,22.32l12.98,60.42h18.65
			l-8.95-57.31h26.09V289.57z"/>
		<path class="st19" d="M277.22,372.4c0.06-0.21,0.12-0.41,0.19-0.62c2.16-7.11,4.2-24.13,6.22-31.29
			c2.16-7.66,4.18-15.36,5.66-23.18c0.31-1.6,0.57-3.21,0.85-4.82c0.11-0.72,0.18-1.2,0.22-1.44c0.1-0.84,0.2-1.67,0.28-2.51
			c0.02-0.2,0.03-0.41,0.05-0.61h-41.55v7.16h26.09l-8.95,57.31H277.22z"/>
		<path class="st19" d="M250.93,307.93h-39.91c0.19,0.82,0.38,1.63,0.59,2.44c1.76,6.9,4.01,13.66,6.26,20.41
			c2.19,6.58,4.49,13.16,6.18,19.89c0.99,3.95,1.75,17.79,2.74,21.73h6.99l-8.95-57.31h26.09V307.93z"/>
		<g id="XMLID_534_">
			<g id="XMLID_535_">
				<g id="XMLID_537_">
					<g id="XMLID_570_">
						<path id="XMLID_573_" class="st20" d="M231.7,183.79c0,0-3.97-6.27-8.52-2.84c-4.55,3.42,0.27,15.8,8.54,13.81L231.7,183.79z"
							/>
						<path id="XMLID_572_" class="st21" d="M231.71,187.95l0.01,5.64c-7.04,0.57-10.05-9.45-6.74-10.47
							C227.66,182.29,230.53,185.98,231.71,187.95z"/>
						<path id="XMLID_571_" class="st22" d="M223.67,185c0,0,0.02-0.04,0.05-0.12c0.03-0.08,0.08-0.19,0.14-0.33
							c0.13-0.27,0.35-0.65,0.71-0.9c0.09-0.06,0.2-0.11,0.3-0.15c0.06-0.02,0.11-0.04,0.17-0.05l0.04-0.01l0,0
							c-0.03,0.01-0.01,0-0.01,0l0.01,0l0.02,0l0.03,0l0.11-0.02c0.08-0.02,0.14-0.02,0.2-0.02c0.06,0,0.12-0.01,0.2,0
							c0.07,0,0.14,0,0.2,0.01c0.07,0.01,0.14,0.01,0.21,0.03c0.56,0.09,1.14,0.38,1.69,0.74c0.28,0.18,0.54,0.38,0.79,0.59
							c0.25,0.21,0.5,0.43,0.73,0.65c0.47,0.44,0.88,0.87,1.25,1.25c0.72,0.77,1.2,1.29,1.2,1.29s-0.05-0.17-0.17-0.46
							c-0.12-0.29-0.31-0.69-0.59-1.15c-0.14-0.23-0.29-0.48-0.47-0.73c-0.18-0.25-0.38-0.51-0.6-0.77
							c-0.45-0.51-0.98-1.03-1.61-1.45c-0.32-0.21-0.65-0.39-1.01-0.53c-0.36-0.14-0.74-0.23-1.12-0.25
							c-0.09-0.01-0.19-0.01-0.28-0.01c-0.09,0-0.18,0.01-0.28,0.02c-0.09,0.01-0.18,0.03-0.28,0.05c-0.1,0.02-0.19,0.04-0.25,0.07
							l-0.11,0.04l-0.07,0.02l-0.06,0.03c-0.08,0.03-0.16,0.07-0.23,0.12c-0.14,0.09-0.27,0.2-0.37,0.31
							c-0.21,0.22-0.33,0.47-0.41,0.69c-0.08,0.22-0.1,0.41-0.12,0.57c-0.02,0.16-0.01,0.28-0.01,0.37
							C223.67,184.96,223.67,185,223.67,185z"/>
					</g>
					<g id="XMLID_566_">
						<path id="XMLID_569_" class="st20" d="M273.81,187.43c0,0,4.99-5.49,8.88-1.34c3.9,4.15-2.98,15.52-10.78,12.14L273.81,187.43
							z"/>
						<path id="XMLID_568_" class="st21" d="M273.09,191.52l-0.98,5.56c6.84,1.77,11.52-7.58,8.43-9.16
							C278.05,186.64,274.59,189.78,273.09,191.52z"/>
						<path id="XMLID_567_" class="st22" d="M281.51,190c0,0-0.01-0.04-0.02-0.12c-0.02-0.08-0.04-0.2-0.08-0.34
							c-0.08-0.29-0.23-0.7-0.55-1.02c-0.08-0.08-0.17-0.14-0.27-0.2c-0.05-0.02-0.1-0.06-0.15-0.08l-0.04-0.02l0,0
							c0.03,0.01,0.01,0,0.01,0l-0.01,0l-0.01-0.01l-0.03-0.01l-0.11-0.04c-0.08-0.03-0.14-0.04-0.19-0.06
							c-0.06-0.02-0.12-0.03-0.19-0.04c-0.07-0.01-0.13-0.02-0.2-0.02c-0.07-0.01-0.14-0.01-0.21-0.01c-0.57,0-1.19,0.17-1.79,0.44
							c-0.3,0.13-0.59,0.29-0.88,0.45c-0.28,0.16-0.56,0.34-0.83,0.51c-0.53,0.35-1.02,0.71-1.44,1.02c-0.84,0.64-1.4,1.07-1.4,1.07
							s0.08-0.16,0.25-0.42c0.17-0.26,0.42-0.63,0.77-1.04c0.17-0.2,0.37-0.42,0.59-0.64c0.22-0.22,0.46-0.44,0.72-0.66
							c0.53-0.43,1.14-0.84,1.83-1.15c0.35-0.15,0.71-0.27,1.09-0.35c0.38-0.08,0.77-0.1,1.15-0.06c0.1,0.01,0.19,0.03,0.28,0.04
							c0.09,0.01,0.18,0.04,0.27,0.07c0.09,0.02,0.17,0.05,0.26,0.09c0.09,0.04,0.17,0.07,0.23,0.11l0.1,0.05l0.06,0.04l0.06,0.04
							c0.08,0.05,0.14,0.1,0.21,0.16c0.12,0.12,0.23,0.24,0.32,0.37c0.17,0.26,0.25,0.52,0.28,0.75c0.04,0.23,0.03,0.42,0.02,0.58
							c-0.01,0.16-0.04,0.28-0.06,0.36C281.52,189.95,281.51,190,281.51,190z"/>
					</g>
					<path id="XMLID_565_" class="st20" d="M245.2,203.76l11.44-0.02c0,0,0.47,17.92,0.51,17.92c0,0-0.83,3.58-5.91,3.66
						c-5.08,0.09-6.34-3.64-6.34-3.64C244.95,221.58,245.2,203.76,245.2,203.76z"/>
					<path id="XMLID_14_" class="st22" d="M245.2,203.76l11.44-0.02c0,0,0.47,17.92,0.51,17.92c0,0-0.83,3.58-5.91,3.66
						c-5.08,0.09-6.34-3.64-6.34-3.64C244.95,221.58,245.2,203.76,245.2,203.76z"/>
					<path id="XMLID_563_" class="st22" d="M245.88,206.57l11.4,0.98c0,0-0.05,2.29-0.09,4.24c0,0.28-3.32,0.5-3.68,0.52
						c-2.83,0.2-5.55-0.39-8.2-1.32C245.57,209.02,245.88,206.57,245.88,206.57z"/>
					<path id="XMLID_561_" class="st22" d="M229.3,178.49c0.96-7.9,5.01-15.08,13.1-17.48c4.12-1.22,8.52-1.26,12.77-0.82
						c4.2,0.43,8.66,1.09,12.48,2.96c6.85,3.34,5.5,6.92,5.6,14.22c0.01,0.72,4.47,4.59,4.43,5.31c-0.08,1.64-0.1,3.25-0.3,4.89
						c-0.45,3.67-1.36,7.31-2.86,10.7c-1.82,4.12-4.59,7.84-8.38,10.41c-2.15,1.46-4.57,2.51-7.1,3.16
						c-4.17,1.08-8.07,1.22-12.23,0.07c-2.82-0.78-5.54-1.95-7.93-3.62c-3.97-2.77-6.78-6.78-8.36-11.28
						c-1.33-3.78-1.84-7.82-1.81-11.81c0.01-2.18,0.16-4.39,0.56-6.54C229.28,178.61,229.3,178.55,229.3,178.49z"/>
					<g id="XMLID_538_">
						<path id="XMLID_539_" class="st22" d="M228.87,178.71c0,0-0.13-3.09,0.24-7.05C228.79,175.69,228.87,178.71,228.87,178.71z"/>
					</g>
					<path id="XMLID_574_" class="st23" d="M233.41,162.51c7.18-10.77,45.53-14.04,47.96,22.25c1.77,26.44-28.1,29.73-42.48,23.53
						C214.42,197.72,226.23,173.27,233.41,162.51z"/>
				</g>
				<path id="XMLID_536_" class="st23" d="M228.52,189.62c0,0-3.4-1.04-5.34-8.67c-1.32-5.22,0.19-16.2,6.62-21.48
					c3.77-3.1,4.82-1.66,4.82-1.66s0.99-3.73,8.12-6.83c23.39-10.14,29.36,0.89,32.69,9.99c4.54,12.42,2.26,21.69-22.2,13.69
					c-9.88-3.23-16.16-4.85-16.16-4.85s0.08,3.2-1.9,7.74c-1.98,4.54-6.72,9.47-6.72,9.47"/>
			</g>
		</g>
		<path class="st13" d="M294.88,259.46l-13.65-31.08c-1.96-4.45-7.2-7.43-13.1-7.43h-16.3h-1.8h-16.3c-5.89,0-11.14,2.98-13.1,7.43
			l-13.65,31.08c-3.17,7.23,3.52,14.8,13.08,14.8h29.96h1.8h29.96C291.36,274.27,298.05,266.69,294.88,259.46z"/>
		<path class="st24" d="M271.2,306.81h-39.82c-7.78,0-14.08-6.31-14.08-14.08v-52.2c0-7.78,6.31-14.08,14.08-14.08h39.82
			c7.78,0,14.08,6.31,14.08,14.08v52.2C285.29,300.5,278.98,306.81,271.2,306.81z"/>
		<path class="st3" d="M267.89,301.88H234.7c-7.78,0-14.08-6.31-14.08-14.08v-47.27c0-7.78,6.31-14.08,14.08-14.08h33.19
			c7.78,0,14.08,6.31,14.08,14.08v47.27C281.97,295.58,275.67,301.88,267.89,301.88z"/>
		<path class="st24" d="M266.89,217.23h-33.19c-7.78,0-14.08-6.31-14.08-14.08v-11.69c0-7.78,6.31-14.08,14.08-14.08h33.19
			c7.78,0,14.08,6.31,14.08,14.08v11.69C280.97,210.92,274.66,217.23,266.89,217.23z"/>
		<path class="st3" d="M265.78,213.82H234.8c-6.28,0-11.37-5.12-11.37-11.44v-12.24c0-6.32,5.09-11.44,11.37-11.44h30.98
			c6.28,0,11.37,5.12,11.37,11.44v12.23C277.15,208.7,272.06,213.82,265.78,213.82z"/>
		<ellipse class="st3" cx="249.96" cy="317.44" rx="39.81" ry="9.35"/>
		<path class="st24" d="M219.58,311.4c7.3,0.81,18.2,1.33,30.38,1.33c12.18,0,23.08-0.52,30.38-1.33c-7.3-2.03-18.2-3.31-30.38-3.31
			C237.78,308.09,226.88,309.38,219.58,311.4z"/>
		<path class="st25" d="M210.92,319.27c3.62,4.29,19.72,7.52,39.04,7.52s35.42-3.23,39.04-7.52H210.92z"/>
		<path class="st9" d="M255.8,373.33h-11.69v-95.67c0-3.23,2.62-5.85,5.85-5.85l0,0c3.23,0,5.85,2.62,5.85,5.85V373.33z"/>
		<path class="st9" d="M254.07,273.23h-8.22v-82.04c0-2.27,1.84-4.11,4.11-4.11l0,0c2.27,0,4.11,1.84,4.11,4.11V273.23z"/>
		<path class="st18" d="M233.8,372.4h-15.57c0,0-16.57,1.57-16.57,12.54h32.14V372.4z"/>
		<g>
			<g>
				<path class="st9" d="M249.52,325.41c-0.16,0.01-16.4,1.38-34.17-3.87c-12.83-3.79-11.21-30.31-9.12-42.89
					c5.04-0.2,8.9-1.33,8.9-2.7c0-1.51-4.71-2.73-10.52-2.73c-5.81,0-10.52,1.22-10.52,2.73c0,1.25,3.24,2.3,7.65,2.63
					c-1.57,9.93-5.09,41.42,12.13,46.51c12.23,3.62,23.56,4.27,30.17,4.27c3.53,0,5.72-0.19,5.96-0.21L249.52,325.41z"/>
			</g>
			<g>
				<path class="st9" d="M252.19,325.41c0.16,0.01,16.4,1.38,34.17-3.87c12.83-3.79,11.21-30.31,9.12-42.89
					c-5.04-0.2-8.9-1.33-8.9-2.7c0-1.51,4.71-2.73,10.52-2.73c5.81,0,10.52,1.22,10.52,2.73c0,1.25-3.24,2.3-7.65,2.63
					c1.57,9.93,5.09,41.42-12.13,46.51c-12.23,3.62-23.56,4.27-30.17,4.27c-3.53,0-5.72-0.19-5.96-0.21L252.19,325.41z"/>
			</g>
		</g>
		<path class="st9" d="M256.87,380.19c0,3.79-3.07,6.87-6.87,6.87c-3.79,0-6.87-3.07-6.87-6.87c0-3.79,3.07-6.87,6.87-6.87
			C253.79,373.33,256.87,376.4,256.87,380.19z"/>
		<path class="st9" d="M256.87,274.27c0,3.79-3.07,6.87-6.87,6.87c-3.79,0-6.87-3.07-6.87-6.87c0-3.79,3.07-6.87,6.87-6.87
			C253.79,267.4,256.87,270.47,256.87,274.27z"/>
		<g>
			<path class="st9" d="M234.18,380.19c0,3.79-3.07,6.87-6.87,6.87c-3.79,0-6.87-3.07-6.87-6.87c0-3.79,3.07-6.87,6.87-6.87
				C231.11,373.33,234.18,376.4,234.18,380.19z"/>
			<path class="st9" d="M279.47,380.19c0,3.79-3.07,6.87-6.87,6.87c-3.79,0-6.87-3.07-6.87-6.87c0-3.79,3.07-6.87,6.87-6.87
				C276.4,373.33,279.47,376.4,279.47,380.19z"/>
		</g>
		<rect x="229.18" y="372.4" class="st9" width="41.64" height="4.81"/>
	</g>
</g>
<g id="DESIGNED_BY_FREEPIK">
</g>
</svg>
